<svg xmlns="http://www.w3.org/2000/svg" width="160.074" height="107.037" viewBox="0 0 160.074 107.037">
  <g id="SaudiVision2030_01_1" transform="translate(-0.4 -0.5)">
    <g id="Group_9040" data-name="Group 9040" transform="translate(0.48 0.5)">
      <path id="Path_9288" data-name="Path 9288" d="M123.907,57.734l10.366-9.884V41.1H106.55v7.714h14.223l5.3-3.375L112.9,58.618l1.446,5.705h3.777c5.063,0,8.036,1.848,8.036,5.223v.08c0,3.054-2.411,4.982-5.786,4.982-4.179,0-7.072-1.768-9.884-4.9L104.3,75.654c3.536,4.179,8.6,7.072,15.991,7.072,9.161,0,14.786-5.705,14.786-13.42v-.08C134.917,61.591,129.533,58.7,123.907,57.734Z" transform="translate(-20.888 -8.475)" fill="#757a81"/>
      <path id="Path_9290" data-name="Path 9290" d="M167.157,40.2c-12.616,0-21.857,9.563-21.857,21.134v.08c0,11.652,9.08,21.054,21.777,21.054s21.857-9.563,21.857-21.134v-.08C188.935,49.6,179.854,40.2,167.157,40.2Zm12.295,21.295c0,6.991-5.063,12.777-12.295,12.777S154.7,68.406,154.7,61.415v-.08c0-6.991,5.063-12.777,12.295-12.777s12.456,5.866,12.456,12.857Z" transform="translate(-28.941 -8.298)" fill="#757a81"/>
      <path id="Path_9291" data-name="Path 9291" d="M9.438,77.224l1.768-1.366,8.92-6.83c7.232-5.625,10.768-9,10.768-15.831v-.08c0-7.634-5.625-12.616-14.143-12.616-7.313,0-11.25,2.973-15.268,8.518L7.83,54.081c3.054-3.777,5.223-5.464,8.357-5.464,3.214,0,5.545,1.848,5.545,5.3,0,3.375-2.009,5.625-7.072,9.8L1,74.813v7.072H31.375V74.09H15.706Z" transform="translate(-0.598 -8.357)" fill="#757a81"/>
      <g id="Group_9042" data-name="Group 9042">
        <rect id="Rectangle_326" data-name="Rectangle 326" width="1.768" height="1.768" transform="translate(94.26 1.929)" fill="#757a81"/>
        <rect id="Rectangle_327" data-name="Rectangle 327" width="1.768" height="1.768" transform="translate(131.627 24.268)" fill="#757a81"/>
        <path id="Path_9283" data-name="Path 9283" d="M190.773,24.195a2.8,2.8,0,0,0,1.045-.884,3.891,3.891,0,0,0,.563-1.446,13.332,13.332,0,0,0,.161-1.929V7.4h-1.768V19.936a6.1,6.1,0,0,1-.08,1.286c-.08.321-.161.643-.241.884a1.364,1.364,0,0,1-.482.482,2.377,2.377,0,0,1-.8.161h-.4c-.08,0-.321-.08-.482-.08l-.482,1.768a4.55,4.55,0,0,0,1.446.241C189.809,24.516,190.371,24.356,190.773,24.195Z" transform="translate(-37.289 -1.855)" fill="#757a81"/>
        <path id="Path_9284" data-name="Path 9284" d="M182.818,2.83h-2.491v-.4a1.161,1.161,0,0,1,.161-.563.768.768,0,0,1,.563-.161h1.205V.5H180.97a2.072,2.072,0,0,0-1.607.563A2.231,2.231,0,0,0,178.8,2.83V4.277h3.938V2.83Z" transform="translate(-35.521 -0.5)" fill="#757a81"/>
        <rect id="Rectangle_328" data-name="Rectangle 328" width="1.768" height="1.768" transform="translate(128.091 24.268)" fill="#757a81"/>
        <rect id="Rectangle_329" data-name="Rectangle 329" width="1.768" height="1.768" transform="translate(97.876 1.929)" fill="#757a81"/>
        <path id="Path_9285" data-name="Path 9285" d="M173.289,18.088a5.51,5.51,0,0,0,2.411,1.045,11.009,11.009,0,0,0,2.893.321h.482l.643-1.286v1.768a2.249,2.249,0,0,1-.8,2.009,3.741,3.741,0,0,1-2.25.643,8.9,8.9,0,0,1-1.527-.161,9.2,9.2,0,0,1-1.527-.563l-.562,1.768a11.581,11.581,0,0,0,1.848.563,5.467,5.467,0,0,0,1.607.161,5.283,5.283,0,0,0,3.857-1.205,4.563,4.563,0,0,0,1.205-3.375V7.4h-2.893a9.357,9.357,0,0,0-3.054.482,7.265,7.265,0,0,0-2.33,1.286,7.038,7.038,0,0,0-1.527,1.929,6.292,6.292,0,0,0-.562,2.491,5.723,5.723,0,0,0,.563,2.732A3.573,3.573,0,0,0,173.289,18.088Zm0-6.348a3.675,3.675,0,0,1,1.125-1.366,5.818,5.818,0,0,1,1.527-.884,4.325,4.325,0,0,1,1.768-.321H180.6l-1.045.482v8.036h-1.848a5.4,5.4,0,0,1-1.929-.321,4.608,4.608,0,0,1-1.527-.8,3.225,3.225,0,0,1-1.045-1.286,4.379,4.379,0,0,1-.4-1.768A3.441,3.441,0,0,1,173.289,11.739Z" transform="translate(-34.028 -1.855)" fill="#757a81"/>
        <path id="Path_9286" data-name="Path 9286" d="M116.4,24.275h3.777V22.909a.281.281,0,0,0,.08.161,2.222,2.222,0,0,0,1.045.884,3.187,3.187,0,0,0,1.607.321H155.69V7.4h-1.768V22.507H122.985a2.016,2.016,0,0,1-.8-.161.724.724,0,0,1-.482-.482,1.444,1.444,0,0,1-.241-.884,6.1,6.1,0,0,1-.08-1.286V7.4h-4.822a8.266,8.266,0,0,0-8.357,8.438v.08A8.015,8.015,0,0,0,116.4,24.275Zm-6.429-8.518a6.4,6.4,0,0,1,6.429-6.67h4.179l-1.125.563V19.775a13.333,13.333,0,0,0,.161,1.929c.08.321.161.643.241.884h-3.536a6.579,6.579,0,0,1-6.348-6.83Z" transform="translate(-21.653 -1.855)" fill="#757a81"/>
        <path id="Path_9287" data-name="Path 9287" d="M93.775,19.756l.8,2.089L83.168,7.3H81.4V24.175h1.848v-12.7L82.2,8.988,94.177,24.175H95.7V7.3H93.775Z" transform="translate(-16.39 -1.836)" fill="#757a81"/>
        <path id="Path_9289" data-name="Path 9289" d="M64.7,7a8.473,8.473,0,0,0-8.6,8.679v.08a8.473,8.473,0,0,0,8.6,8.679,8.589,8.589,0,0,0,8.679-8.679v-.08A8.591,8.591,0,0,0,64.7,7Zm6.589,8.759A6.6,6.6,0,0,1,64.7,22.67a6.729,6.729,0,0,1-6.67-6.991V15.6a6.6,6.6,0,0,1,6.589-6.911,6.8,6.8,0,0,1,6.67,7.072Z" transform="translate(-11.421 -1.777)" fill="#757a81"/>
        <rect id="Rectangle_330" data-name="Rectangle 330" width="1.929" height="16.875" transform="translate(39.456 5.464)" fill="#757a81"/>
        <path id="Path_9292" data-name="Path 9292" d="M9.42,24.336,16.732,7.3H14.643L8.938,21.122,9.1,22.97l-.482-1.125L3.634,9.871,2.589,7.3H.5L7.732,24.336Z" transform="translate(-0.5 -1.836)" fill="#757a81"/>
        <rect id="Rectangle_331" data-name="Rectangle 331" width="1.929" height="16.875" transform="translate(18.804 5.464)" fill="#757a81"/>
        <path id="Path_9293" data-name="Path 9293" d="M37.072,14.795c-3.7-.8-4.58-1.688-4.58-3.295v-.08c0-1.527,1.366-2.732,3.616-2.732a7.485,7.485,0,0,1,4.9,1.848l1.045-1.446A8.732,8.732,0,0,0,36.188,7c-3.214,0-5.545,1.929-5.545,4.58v.08c0,2.732,1.768,4.018,5.705,4.9,3.536.723,4.42,1.607,4.42,3.214v.08c0,1.688-1.527,2.893-3.777,2.893a8.022,8.022,0,0,1-5.786-2.411L30,21.706a10.142,10.142,0,0,0,6.911,2.732c3.375,0,5.786-1.848,5.786-4.741v-.08C42.616,16.964,40.848,15.6,37.072,14.795Z" transform="translate(-6.294 -1.777)" fill="#757a81"/>
      </g>
    </g>
    <path id="Path_9294" data-name="Path 9294" d="M68.729,36.9l2.089,1.929-2.009,2.089L66.8,38.909Z" transform="translate(-13.042 -7.15)" fill="#28316f"/>
    <path id="Path_9295" data-name="Path 9295" d="M75.2,38.909l2.009,2.009,2.009-2.089L77.129,36.9Z" transform="translate(-14.692 -7.15)" fill="#b3b0b2"/>
    <path id="Path_9296" data-name="Path 9296" d="M71.5,42.307l1.607,1.527,1.607-1.607L73.107,40.7Z" transform="translate(-13.965 -7.896)" fill="#d4d404"/>
    <path id="Path_9297" data-name="Path 9297" d="M78.9,43.407l1.607,1.527,1.527-1.607L80.427,41.8Z" transform="translate(-15.419 -8.112)" fill="#74b02e"/>
    <path id="Path_9298" data-name="Path 9298" d="M68.2,45.407l1.607,1.527,1.607-1.607L69.807,43.8Z" transform="translate(-13.317 -8.505)" fill="#d4d404"/>
    <path id="Path_9299" data-name="Path 9299" d="M75,45.607l1.607,1.527,1.527-1.607L76.527,44Z" transform="translate(-14.653 -8.544)" fill="#27afba"/>
    <path id="Path_9300" data-name="Path 9300" d="M72.3,48.025l1.205,1.125,1.045-1.125L73.425,46.9Z" transform="translate(-14.122 -9.114)" fill="#74b02e"/>
    <path id="Path_9301" data-name="Path 9301" d="M77.7,49.125l1.125,1.045,1.125-1.125L78.745,48Z" transform="translate(-15.183 -9.33)" fill="#59ab4c"/>
    <rect id="Rectangle_332" data-name="Rectangle 332" width="3.616" height="3.616" transform="translate(71.867 31.148) rotate(-10.387)" fill="#2882c5"/>
    <rect id="Rectangle_333" data-name="Rectangle 333" width="2.893" height="2.893" transform="translate(67.258 32.606) rotate(-10.376)" fill="#213466"/>
    <rect id="Rectangle_334" data-name="Rectangle 334" width="2.893" height="2.893" transform="translate(72.726 36.544) rotate(-10.393)" fill="#27afba"/>
    <rect id="Rectangle_335" data-name="Rectangle 335" width="2.25" height="2.25" transform="translate(68.839 36.961) rotate(-10.382)" fill="#d4d404"/>
    <rect id="Rectangle_336" data-name="Rectangle 336" width="2.25" height="2.25" transform="translate(73.098 41.145) rotate(-10.382)" fill="#b3b0b2"/>
    <rect id="Rectangle_337" data-name="Rectangle 337" width="2.25" height="2.25" transform="translate(65.542 37.844) rotate(-10.382)" fill="#27afba"/>
    <rect id="Rectangle_338" data-name="Rectangle 338" width="2.25" height="2.25" transform="translate(69.562 40.734) rotate(-10.382)" fill="#74b02e"/>
    <rect id="Rectangle_339" data-name="Rectangle 339" width="1.607" height="1.607" transform="translate(66.723 40.996) rotate(-10.387)" fill="#b3b0b2"/>
    <rect id="Rectangle_340" data-name="Rectangle 340" width="1.607" height="1.607" transform="translate(69.7 44.212) rotate(-10.358)" fill="#59ab4c"/>
    <path id="Path_9302" data-name="Path 9302" d="M102.027,53,100.5,56.214l3.214,1.527,1.527-3.214Z" transform="translate(-19.661 -10.312)" fill="#28316f"/>
    <path id="Path_9303" data-name="Path 9303" d="M96.386,51.1,95.1,53.752l2.652,1.205,1.205-2.571Z" transform="translate(-18.601 -9.939)" fill="#27afba"/>
    <path id="Path_9304" data-name="Path 9304" d="M99.005,59.1,97.8,61.671l2.571,1.205,1.286-2.571Z" transform="translate(-19.131 -11.51)" fill="#74b02e"/>
    <path id="Path_9305" data-name="Path 9305" d="M94.864,56.7,93.9,58.709l2.009.964.964-2.009Z" transform="translate(-18.365 -11.039)" fill="#d4d404"/>
    <path id="Path_9306" data-name="Path 9306" d="M96.164,64,95.2,66.009l2.009.964.964-2.009Z" transform="translate(-18.62 -12.472)" fill="#d4d404"/>
    <path id="Path_9307" data-name="Path 9307" d="M90.864,55.2,89.9,57.209l2.009.964.964-2.009Z" transform="translate(-17.579 -10.744)" fill="#2882c5"/>
    <path id="Path_9308" data-name="Path 9308" d="M92.764,61,91.8,63.009l2.089.964.964-2.009Z" transform="translate(-17.952 -11.883)" fill="#b3b0b2"/>
    <path id="Path_9309" data-name="Path 9309" d="M89.843,59.2,89.2,60.646l1.366.643.723-1.366Z" transform="translate(-17.442 -11.53)" fill="#74b02e"/>
    <rect id="Rectangle_341" data-name="Rectangle 341" width="1.607" height="1.607" transform="matrix(0.43, -0.903, 0.903, 0.43, 72.263, 53.397)" fill="#27afba"/>
    <path id="Path_9310" data-name="Path 9310" d="M103.834,72.3,100.7,73.988l1.688,3.134,3.134-1.688Z" transform="translate(-19.701 -14.103)" fill="#2882c5"/>
    <path id="Path_9311" data-name="Path 9311" d="M100.391,67.4,97.9,68.766l1.366,2.571,2.571-1.446Z" transform="translate(-19.151 -13.14)" fill="#27afba"/>
    <path id="Path_9312" data-name="Path 9312" d="M97.891,75.4,95.4,76.766l1.366,2.571,2.491-1.446Z" transform="translate(-18.66 -14.712)" fill="#27afba"/>
    <path id="Path_9313" data-name="Path 9313" d="M96.009,71,94,72.045l1.125,1.929,1.929-1.045Z" transform="translate(-18.385 -13.847)" fill="#28316f"/>
    <path id="Path_9314" data-name="Path 9314" d="M92.729,77.7,90.8,78.745l1.045,1.929,2.009-1.045Z" transform="translate(-17.756 -15.163)" fill="#59ab4c"/>
    <path id="Path_9315" data-name="Path 9315" d="M93.629,67.4,91.7,68.525l1.045,1.929,2.009-1.045Z" transform="translate(-17.933 -13.14)" fill="#213466"/>
    <path id="Path_9316" data-name="Path 9316" d="M91.829,73.3,89.9,74.345l1.045,2.009,1.929-1.125Z" transform="translate(-17.579 -14.299)" fill="#d4d404"/>
    <path id="Path_9317" data-name="Path 9317" d="M90.566,70.1l-1.366.723.723,1.366,1.366-.723Z" transform="translate(-17.442 -13.671)" fill="#b3b0b2"/>
    <path id="Path_9318" data-name="Path 9318" d="M87.946,74.8l-1.446.8.8,1.366,1.366-.723Z" transform="translate(-16.911 -14.594)" fill="#27afba"/>
    <rect id="Rectangle_342" data-name="Rectangle 342" width="3.616" height="3.616" transform="matrix(0.123, -0.993, 0.993, 0.123, 72.477, 74.878)" fill="#74b02e"/>
    <rect id="Rectangle_343" data-name="Rectangle 343" width="2.893" height="2.893" transform="translate(73.201 69.436) rotate(-82.935)" fill="#213466"/>
    <rect id="Rectangle_344" data-name="Rectangle 344" width="2.893" height="2.893" transform="translate(67.785 73.444) rotate(-82.935)" fill="#27afba"/>
    <rect id="Rectangle_345" data-name="Rectangle 345" width="2.25" height="2.25" transform="translate(69.29 69.06) rotate(-82.952)" fill="#74b02e"/>
    <rect id="Rectangle_346" data-name="Rectangle 346" width="2.25" height="2.25" transform="translate(63.986 71.911) rotate(-82.952)" fill="#b3b0b2"/>
    <rect id="Rectangle_347" data-name="Rectangle 347" width="2.25" height="2.25" transform="translate(69.467 65.619) rotate(-82.935)" fill="#b3b0b2"/>
    <rect id="Rectangle_348" data-name="Rectangle 348" width="2.25" height="2.25" transform="translate(65.451 68.624) rotate(-82.935)" fill="#74b02e"/>
    <rect id="Rectangle_349" data-name="Rectangle 349" width="1.607" height="1.607" transform="matrix(0.123, -0.992, 0.992, 0.123, 66.836, 65.304)" fill="#b3b0b2"/>
    <rect id="Rectangle_350" data-name="Rectangle 350" width="1.607" height="1.607" transform="translate(62.854 67.163) rotate(-82.952)" fill="#b3b0b2"/>
    <path id="Path_9319" data-name="Path 9319" d="M76.163,96.711,73.511,94.3,71.1,96.871l2.652,2.491Z" transform="translate(-13.887 -18.424)" fill="#d4d404"/>
    <path id="Path_9320" data-name="Path 9320" d="M75.563,34.291,72.911,31.8,70.5,34.452l2.652,2.411Z" transform="translate(-13.769 -6.148)" fill="#74b02e"/>
    <path id="Path_9321" data-name="Path 9321" d="M79.9,91.929,77.809,90,75.8,92.089l2.17,1.929Z" transform="translate(-14.81 -17.579)" fill="#27afba"/>
    <path id="Path_9322" data-name="Path 9322" d="M71.5,92.029,69.409,90.1,67.4,92.189,69.57,94.2Z" transform="translate(-13.16 -17.599)" fill="#74b02e"/>
    <path id="Path_9323" data-name="Path 9323" d="M75.314,88.827,73.627,87.3,72.1,88.988l1.688,1.527Z" transform="translate(-14.083 -17.049)" fill="#2882c5"/>
    <path id="Path_9324" data-name="Path 9324" d="M67.914,87.927,66.227,86.4,64.7,88.007l1.688,1.527Z" transform="translate(-12.63 -16.872)" fill="#d4d404"/>
    <path id="Path_9325" data-name="Path 9325" d="M77.934,85.527,76.327,84,74.8,85.607l1.607,1.527Z" transform="translate(-14.613 -16.401)" fill="#d4d404"/>
    <path id="Path_9326" data-name="Path 9326" d="M71.814,85.627,70.127,84.1,68.6,85.707l1.688,1.527Z" transform="translate(-13.396 -16.42)" fill="#b3b0b2"/>
    <path id="Path_9327" data-name="Path 9327" d="M74.65,83.345,73.445,82.3,72.4,83.425l1.125,1.125Z" transform="translate(-14.142 -16.067)" fill="#213466"/>
    <path id="Path_9328" data-name="Path 9328" d="M69.25,82.425,68.125,81.3,67,82.505l1.205,1.045Z" transform="translate(-13.081 -15.87)" fill="#b3b0b2"/>
    <rect id="Rectangle_351" data-name="Rectangle 351" width="3.616" height="3.616" transform="translate(42.75 72.482) rotate(-11.332)" fill="#2882c5"/>
    <rect id="Rectangle_352" data-name="Rectangle 352" width="2.893" height="2.893" transform="matrix(0.98, -0.196, 0.196, 0.98, 48.124, 71.528)" fill="#27afba"/>
    <rect id="Rectangle_353" data-name="Rectangle 353" width="2.893" height="2.893" transform="matrix(0.98, -0.197, 0.197, 0.98, 42.582, 67.676)" fill="#74b02e"/>
    <rect id="Rectangle_354" data-name="Rectangle 354" width="2.25" height="2.25" transform="matrix(0.98, -0.196, 0.196, 0.98, 47.291, 67.671)" fill="#d4d404"/>
    <rect id="Rectangle_355" data-name="Rectangle 355" width="2.25" height="2.25" transform="matrix(0.98, -0.196, 0.196, 0.98, 50.503, 66.722)" fill="#28316f"/>
    <rect id="Rectangle_356" data-name="Rectangle 356" width="2.25" height="2.25" transform="matrix(0.98, -0.196, 0.196, 0.98, 46.486, 63.903)" fill="#2882c5"/>
    <rect id="Rectangle_357" data-name="Rectangle 357" width="1.607" height="1.607" transform="translate(50.09 64.156) rotate(-11.314)" fill="#74b02e"/>
    <rect id="Rectangle_358" data-name="Rectangle 358" width="1.607" height="1.607" transform="matrix(0.98, -0.197, 0.197, 0.98, 47.025, 60.947)" fill="#b3b0b2"/>
    <path id="Path_9329" data-name="Path 9329" d="M44.214,78.322l1.527-3.295L42.446,73.5,41,76.795Z" transform="translate(-7.975 -14.338)" fill="#27afba"/>
    <path id="Path_9330" data-name="Path 9330" d="M50.152,80.277l1.205-2.571L48.705,76.5,47.5,79.071Z" transform="translate(-9.251 -14.928)" fill="#d4d404"/>
    <path id="Path_9331" data-name="Path 9331" d="M47.352,72.377l1.205-2.571L45.905,68.6,44.7,71.171Z" transform="translate(-8.701 -13.376)" fill="#2882c5"/>
    <rect id="Rectangle_359" data-name="Rectangle 359" width="2.25" height="2.25" transform="translate(40.036 59.963) rotate(-65.485)" fill="#27afba"/>
    <path id="Path_9332" data-name="Path 9332" d="M55.189,81.273l.884-2.009L54.064,78.3,53.1,80.309Z" transform="translate(-10.351 -15.281)" fill="#b3b0b2"/>
    <rect id="Rectangle_360" data-name="Rectangle 360" width="2.25" height="2.25" transform="matrix(0.415, -0.91, 0.91, 0.415, 38.927, 54.091)" fill="#28316f"/>
    <rect id="Rectangle_361" data-name="Rectangle 361" width="2.25" height="2.25" transform="matrix(0.415, -0.91, 0.91, 0.415, 43.312, 61.145)" fill="#59ab4c"/>
    <rect id="Rectangle_362" data-name="Rectangle 362" width="2.25" height="2.25" transform="translate(41.674 56.47) rotate(-65.455)" fill="#d4d404"/>
    <path id="Path_9333" data-name="Path 9333" d="M56.946,72.489l.643-1.446L56.223,70.4,55.5,71.846Z" transform="translate(-10.823 -13.73)" fill="#213466"/>
    <path id="Path_9334" data-name="Path 9334" d="M56.246,67.109l.643-1.366L55.443,65.1,54.8,66.466Z" transform="translate(-10.685 -12.689)" fill="#74b02e"/>
    <path id="Path_9335" data-name="Path 9335" d="M42.068,59,45.2,57.234,43.434,54.1,40.3,55.868Z" transform="translate(-7.837 -10.528)" fill="#27afba"/>
    <path id="Path_9336" data-name="Path 9336" d="M45.846,64.038l2.491-1.446L46.891,60.1,44.4,61.546Z" transform="translate(-8.642 -11.706)" fill="#74b02e"/>
    <path id="Path_9337" data-name="Path 9337" d="M48.246,56.038l2.491-1.446L49.291,52.1,46.8,53.546Z" transform="translate(-9.114 -10.135)" fill="#213466"/>
    <path id="Path_9338" data-name="Path 9338" d="M50.345,60.654l2.009-1.125L51.229,57.6,49.3,58.725Z" transform="translate(-9.605 -11.215)" fill="#2882c5"/>
    <path id="Path_9339" data-name="Path 9339" d="M53.525,53.854l1.929-1.125L54.329,50.8,52.4,51.925Z" transform="translate(-10.214 -9.88)" fill="#74b02e"/>
    <path id="Path_9340" data-name="Path 9340" d="M52.825,64.154l1.929-1.125L53.629,61.1,51.7,62.225Z" transform="translate(-10.076 -11.903)" fill="#27afba"/>
    <path id="Path_9341" data-name="Path 9341" d="M54.525,58.254l1.929-1.125L55.329,55.2,53.4,56.325Z" transform="translate(-10.41 -10.744)" fill="#d4d404"/>
    <path id="Path_9342" data-name="Path 9342" d="M56.1,61.67l1.366-.8-.8-1.366-1.366.8Z" transform="translate(-10.783 -11.589)" fill="#b3b0b2"/>
    <path id="Path_9343" data-name="Path 9343" d="M58.6,56.87l1.366-.8-.8-1.366-1.366.8Z" transform="translate(-11.274 -10.646)" fill="#74b02e"/>
    <rect id="Rectangle_363" data-name="Rectangle 363" width="3.616" height="3.616" transform="matrix(0.106, -0.994, 0.994, 0.106, 41.735, 34.809)" fill="#74b02e"/>
    <rect id="Rectangle_364" data-name="Rectangle 364" width="2.893" height="2.893" transform="translate(41.814 39.623) rotate(-83.892)" fill="#b3b0b2"/>
    <rect id="Rectangle_365" data-name="Rectangle 365" width="2.893" height="2.893" transform="translate(47.178 35.461) rotate(-83.892)" fill="#27afba"/>
    <rect id="Rectangle_366" data-name="Rectangle 366" width="2.25" height="2.25" transform="translate(46.429 39.371) rotate(-83.886)" fill="#d4d404"/>
    <rect id="Rectangle_367" data-name="Rectangle 367" width="2.25" height="2.25" transform="translate(51.686 36.459) rotate(-83.91)" fill="#2882c5"/>
    <rect id="Rectangle_368" data-name="Rectangle 368" width="2.25" height="2.25" transform="translate(46.389 42.792) rotate(-83.886)" fill="#27afba"/>
    <rect id="Rectangle_369" data-name="Rectangle 369" width="2.25" height="2.25" transform="translate(50.256 39.742) rotate(-83.886)" fill="#74b02e"/>
    <rect id="Rectangle_370" data-name="Rectangle 370" width="1.607" height="1.607" transform="translate(49.7 42.493) rotate(-83.892)" fill="#213466"/>
    <rect id="Rectangle_371" data-name="Rectangle 371" width="1.607" height="1.607" transform="translate(53.639 40.534) rotate(-83.927)" fill="#b3b0b2"/>
    <path id="Path_9344" data-name="Path 9344" d="M82.122,65.639A6.507,6.507,0,0,0,80.675,65a8.5,8.5,0,0,0-3.938-.321,12.844,12.844,0,0,0-1.688.4c-.08,0-.08,0-.161.08a4.307,4.307,0,0,0-.884.4,7.467,7.467,0,0,1-.8.4,10.974,10.974,0,0,0-1.688,1.205,34.921,34.921,0,0,1-.161-9.08h0c1.366.884.964,3.214.723,3.938h0a4.063,4.063,0,0,0,.482-4.741h0a2.446,2.446,0,0,1,.643.643,4.242,4.242,0,0,1,.8,2.009v1.125h0a3.891,3.891,0,0,0,0-3.536,3.045,3.045,0,0,0-.8-1.045l-.321-.321h0c.08,0,.161.08.321.08a2.514,2.514,0,0,1,.8.4,3.057,3.057,0,0,1,1.045,1.446,4,4,0,0,1,.241,1.286h0a3.2,3.2,0,0,0-.241-2.652,3.233,3.233,0,0,0-1.045-1.045,3.358,3.358,0,0,0-.8-.321c-.08-.08-.161-.08-.321-.08h.4a2.477,2.477,0,0,1,.8.08,2.572,2.572,0,0,1,1.045.4,2.833,2.833,0,0,1,.723.8h0a2.094,2.094,0,0,0-.723-1.446,2.646,2.646,0,0,0-1.045-.563,2.477,2.477,0,0,0-.8-.08,4.033,4.033,0,0,0-.964.161h0a2.194,2.194,0,0,1,.964-.723,2.477,2.477,0,0,1,.8-.08,1.514,1.514,0,0,1,.643.161h0a1.25,1.25,0,0,0-.643-.482,1.358,1.358,0,0,0-.8-.241,2.067,2.067,0,0,0-1.848.884h0l-.241-.482a6.788,6.788,0,0,1-.4-1.366h0a6.788,6.788,0,0,1-.4,1.366l-.241.482h0a1.956,1.956,0,0,0-3.214-.161h0a1.861,1.861,0,0,1,2.33.643h0a2.787,2.787,0,0,0-3.054.723,2.032,2.032,0,0,0-.482,1.205h0c.08-.08.241-.321.482-.563a2.816,2.816,0,0,1,2.411-.643h0a3.183,3.183,0,0,0-2.411,1.929,3.307,3.307,0,0,0,0,2.17h0v-.08a3.289,3.289,0,0,1,2.33-3.214h0a3.961,3.961,0,0,0-1.045,4.9h0a4.067,4.067,0,0,1,1.366-3.777h0a4.207,4.207,0,0,0,.482,4.741h0c-.321-.643-.643-3.054.723-3.938h0a34.957,34.957,0,0,1-.161,9.08,18.652,18.652,0,0,0-3.375-2.009c-.161-.08-.241-.08-.4-.161a9.761,9.761,0,0,0-3.214-.482,8.458,8.458,0,0,0-3.295.8c-.161.08-.241.161-.321.161v.08c.08,0,.161-.08.321-.08a9.383,9.383,0,0,1,3.295-.321,9.14,9.14,0,0,1,3.214.884,17.088,17.088,0,0,1,3.777,2.491C68.3,69.9,66.934,71.265,66.13,71.747c-.08,0-.08.08-.161.08a.892.892,0,0,0-.884-.321.872.872,0,0,0-.643.643.934.934,0,0,0,.161.8,1.33,1.33,0,0,0,1.527.241c1.125-.482,2.491-1.929,4.179-3.455.161-.161.321-.241.4-.4.161.161.321.241.4.4.8.723,1.446,1.366,2.089,2.009a3.146,3.146,0,0,0,.8.643,6.191,6.191,0,0,0,1.045.723,1.443,1.443,0,0,0,1.688,0l.08-.08a1.1,1.1,0,0,0,.161-.8.683.683,0,0,0-.241-.4,1.756,1.756,0,0,0-.4-.241.834.834,0,0,0-.884.321,1.756,1.756,0,0,0-.4-.241,8.761,8.761,0,0,1-1.045-.884c-.241-.241-.482-.4-.8-.723-.563-.482-1.125-.964-1.688-1.527.563-.482,1.125-.884,1.688-1.286a7.065,7.065,0,0,1,.8-.482A6.642,6.642,0,0,1,75.05,66.2a14.489,14.489,0,0,1,1.688-.643,9.1,9.1,0,0,1,3.938-.241,9.345,9.345,0,0,0,1.446.321c0,.08.08.08,0,0" transform="translate(-11.569 -10.174)" fill="#757a81"/>
    <g id="Group_9041" data-name="Group 9041" transform="translate(0.4 83.992)">
      <rect id="Rectangle_372" data-name="Rectangle 372" width="1.045" height="1.045" transform="translate(8.438 10.527)" fill="#757a81"/>
      <path id="Path_9345" data-name="Path 9345" d="M95.491,114.291V107.3H94.447v5.947H90.589V107.3H89.545v5.947h-4.1V107.3H83.839a6.267,6.267,0,0,0-1.768.241,3.7,3.7,0,0,0-1.366.723,3.065,3.065,0,0,0-.884,1.125,2.641,2.641,0,0,0-.321,1.366,3.384,3.384,0,0,0,.321,1.607,3.009,3.009,0,0,0,.964,1.045,3.588,3.588,0,0,0,1.366.643,5.181,5.181,0,0,0,1.607.241H95.491Zm-13.179-1.205a1.916,1.916,0,0,1-.884-.482,1.837,1.837,0,0,1-.562-.8,2.384,2.384,0,0,1,0-2.089,3.146,3.146,0,0,1,.643-.8,1.916,1.916,0,0,1,.884-.482,4.072,4.072,0,0,1,1.045-.161h1.045v4.9H83.438A2.58,2.58,0,0,1,82.313,113.086Z" transform="translate(-15.937 -104.97)" fill="#757a81"/>
      <rect id="Rectangle_373" data-name="Rectangle 373" width="1.045" height="9.241" transform="translate(57.537 0.08)" fill="#757a81"/>
      <rect id="Rectangle_374" data-name="Rectangle 374" width="1.045" height="1.045" transform="translate(68.465 0.08)" fill="#757a81"/>
      <rect id="Rectangle_375" data-name="Rectangle 375" width="1.045" height="1.045" transform="translate(78.51 10.527)" fill="#757a81"/>
      <rect id="Rectangle_376" data-name="Rectangle 376" width="1.045" height="1.045" transform="translate(10.206 10.527)" fill="#757a81"/>
      <path id="Path_9346" data-name="Path 9346" d="M58.809,112.677H57.122a3.893,3.893,0,0,1-1.446-.241,1.567,1.567,0,0,1-.8-.8,3.311,3.311,0,0,0,.08-.964v-3.295H53.908v3.455a2.244,2.244,0,0,1-.482,1.446,1.994,1.994,0,0,1-1.446.563,2.378,2.378,0,0,1-.8-.161,1.75,1.75,0,0,1-.643-.4,1.441,1.441,0,0,1-.4-.562,2.346,2.346,0,0,1-.161-.723v-3.616H48.925v3.536a2.377,2.377,0,0,1-.161.8,1.441,1.441,0,0,1-.4.563,1.3,1.3,0,0,1-.563.321,1.769,1.769,0,0,1-.643.08H45.149v-5.3H44.1v5.3H38.72l1.768-4.339a3.568,3.568,0,0,0-.884-.643,5.993,5.993,0,0,0-.964-.563,4.916,4.916,0,0,0-.964-.4,2.973,2.973,0,0,0-1.929,0,4.916,4.916,0,0,0-.964.4,5.993,5.993,0,0,0-.964.563c-.321.241-.563.4-.884.643l1.848,4.339H31.247V106.73H29.639a6.267,6.267,0,0,0-1.768.241,3.7,3.7,0,0,0-1.366.723,3.908,3.908,0,0,0-.884,1.125,2.752,2.752,0,0,0-.321,1.446,2.873,2.873,0,0,0,.321,1.527,3.009,3.009,0,0,0,.964,1.045,5.394,5.394,0,0,0,1.366.643,5.206,5.206,0,0,0,1.607.161H30.2v.321c0,.563-.161.964-.482,1.125a2.039,2.039,0,0,1-1.286.321,3.013,3.013,0,0,1-.884-.08,6.1,6.1,0,0,1-.884-.321l-.321.964a7.464,7.464,0,0,0,1.045.321,3.6,3.6,0,0,0,.884.08,2.824,2.824,0,0,0,2.17-.723,2.562,2.562,0,0,0,.643-1.929H47.077a2.641,2.641,0,0,0,1.366-.321,2.555,2.555,0,0,0,.964-.884,2.442,2.442,0,0,0,1.045.964,3.059,3.059,0,0,0,1.527.321,3.384,3.384,0,0,0,1.607-.321,2.233,2.233,0,0,0,.964-.964.8.8,0,0,0,.321.4c.161.161.321.241.482.4a1.525,1.525,0,0,0,.723.241,2.225,2.225,0,0,0,.723.08h2.973V104.4h-.964Zm-28.608,0H29.157a5.426,5.426,0,0,1-1.125-.161,1.915,1.915,0,0,1-.884-.482,5.2,5.2,0,0,1-.643-.723,2.384,2.384,0,0,1,0-2.089,3.146,3.146,0,0,1,.643-.8,1.915,1.915,0,0,1,.884-.482,4.071,4.071,0,0,1,1.045-.161h1.045v4.9Zm5.625,0-1.607-3.938a4.8,4.8,0,0,1,1.205-.723,3.64,3.64,0,0,1,1.286-.241,4.081,4.081,0,0,1,1.366.241,2.724,2.724,0,0,1,1.125.723l-1.607,3.938Z" transform="translate(-5.291 -104.4)" fill="#757a81"/>
      <rect id="Rectangle_377" data-name="Rectangle 377" width="1.045" height="1.045" transform="translate(4.902 0.08)" fill="#757a81"/>
      <rect id="Rectangle_378" data-name="Rectangle 378" width="1.045" height="1.045" transform="translate(109.046 0.08)" fill="#757a81"/>
      <rect id="Rectangle_379" data-name="Rectangle 379" width="1.045" height="9.241" transform="translate(99.885 0.08)" fill="#757a81"/>
      <rect id="Rectangle_380" data-name="Rectangle 380" width="1.045" height="1.045" transform="translate(66.617 0.08)" fill="#757a81"/>
      <path id="Path_9347" data-name="Path 9347" d="M21.905,110.193a4.743,4.743,0,0,0-.161-1.125,1.915,1.915,0,0,0-.482-.884,1.685,1.685,0,0,0-.884-.643,2.684,2.684,0,0,0-1.205-.241H18.45v1.045h.884a2.346,2.346,0,0,1,.723.161,1.441,1.441,0,0,1,.563.4,2.014,2.014,0,0,1,.321.563,2.477,2.477,0,0,1,.08.8v2.973H16.2v1.045h5.866v-4.1Z" transform="translate(-3.503 -104.97)" fill="#757a81"/>
      <rect id="Rectangle_381" data-name="Rectangle 381" width="1.045" height="9.241" transform="translate(154.368 0.08)" fill="#757a81"/>
      <rect id="Rectangle_382" data-name="Rectangle 382" width="1.045" height="1.045" transform="translate(110.814 0.08)" fill="#757a81"/>
      <path id="Path_9348" data-name="Path 9348" d="M177.585,104.5H176.54v8.2H173a3.261,3.261,0,0,0,.321-1.527,2.752,2.752,0,0,0-.321-1.446,3.179,3.179,0,0,0-.8-1.205,4.5,4.5,0,0,0-1.205-.8,4.7,4.7,0,0,0-1.527-.321,3.152,3.152,0,0,0-1.446.321,2.883,2.883,0,0,0-1.125.8,4.5,4.5,0,0,0-.8,1.205,4.693,4.693,0,0,0-.321,1.446,2.733,2.733,0,0,0,.08.8l.241.723h-3.214a3.261,3.261,0,0,0,.321-1.527,2.752,2.752,0,0,0-.321-1.446,3.179,3.179,0,0,0-.8-1.205,4.5,4.5,0,0,0-1.205-.8,4.7,4.7,0,0,0-1.527-.321,3.152,3.152,0,0,0-1.446.321,2.883,2.883,0,0,0-1.125.8,4.5,4.5,0,0,0-.8,1.205,4.693,4.693,0,0,0-.321,1.446,2.734,2.734,0,0,0,.08.8l.241.723h-3.295v-8.2h-1.045v8.2h-3.295v-1.607a4.744,4.744,0,0,0-.161-1.125,1.916,1.916,0,0,0-.482-.884,1.685,1.685,0,0,0-.884-.643,2.818,2.818,0,0,0-1.286-.241h-4.58l1.929-3.7h-1.125l-2.009,3.7a1.161,1.161,0,0,0,.161.563,1.681,1.681,0,0,0,.321.482h5.223a2.016,2.016,0,0,1,.8.161,1.441,1.441,0,0,1,.563.4,2.013,2.013,0,0,1,.321.563,2.224,2.224,0,0,1,.08.723V112.7h-9.563V106.75h-1.607a6.266,6.266,0,0,0-1.768.241,3.7,3.7,0,0,0-1.366.723,3.065,3.065,0,0,0-.884,1.125,2.641,2.641,0,0,0-.321,1.366,3.384,3.384,0,0,0,.321,1.607,3.009,3.009,0,0,0,.964,1.045,3.588,3.588,0,0,0,1.366.643,5.182,5.182,0,0,0,1.607.241h20.893a4.681,4.681,0,0,0,1.205.884,3.787,3.787,0,0,0,3.054,0,3.356,3.356,0,0,0,1.205-.884h4.5a4.681,4.681,0,0,0,1.205.884,3.787,3.787,0,0,0,3.054,0,3.356,3.356,0,0,0,1.205-.884H177.5V104.5Zm-40.5,8.2h-1.045a5.427,5.427,0,0,1-1.125-.161,1.916,1.916,0,0,1-.884-.482,1.837,1.837,0,0,1-.562-.8,2.384,2.384,0,0,1,0-2.089,3.146,3.146,0,0,1,.643-.8,1.916,1.916,0,0,1,.884-.482,4.072,4.072,0,0,1,1.045-.161h1.045Zm24.991-.482a2.415,2.415,0,0,1-1.446,1.446,2.373,2.373,0,0,1-1.045.161,2.224,2.224,0,0,1-1.045-.241,2.887,2.887,0,0,1-.8-.562,3.318,3.318,0,0,1-.563-.884,2.206,2.206,0,0,1-.161-1.045,4.072,4.072,0,0,1,.161-1.045,3.318,3.318,0,0,1,.563-.884,2.886,2.886,0,0,1,.8-.563,2.225,2.225,0,0,1,1.045-.241,2.836,2.836,0,0,1,1.125.241,2.415,2.415,0,0,1,1.446,1.446,2.567,2.567,0,0,1,.241,1.125A3.978,3.978,0,0,1,162.075,112.214Zm10.045,0a2.415,2.415,0,0,1-1.446,1.446,2.373,2.373,0,0,1-1.045.161,2.224,2.224,0,0,1-1.045-.241,2.887,2.887,0,0,1-.8-.562,3.318,3.318,0,0,1-.562-.884,2.206,2.206,0,0,1-.161-1.045,4.071,4.071,0,0,1,.161-1.045,3.318,3.318,0,0,1,.563-.884,2.886,2.886,0,0,1,.8-.563,2.225,2.225,0,0,1,1.045-.241,2.836,2.836,0,0,1,1.125.241,2.415,2.415,0,0,1,1.446,1.446,2.567,2.567,0,0,1,.241,1.125A7.465,7.465,0,0,0,172.12,112.214Z" transform="translate(-26.19 -104.42)" fill="#757a81"/>
      <path id="Path_9349" data-name="Path 9349" d="M3.132,114.05a5.181,5.181,0,0,0,1.607.241h6.75V107.3H10.445v5.947h-4.1V107.3H4.739a6.267,6.267,0,0,0-1.768.241,3.7,3.7,0,0,0-1.366.723,3.065,3.065,0,0,0-.884,1.125A2.641,2.641,0,0,0,.4,110.755a3.384,3.384,0,0,0,.321,1.607,3.009,3.009,0,0,0,.964,1.045A4.686,4.686,0,0,0,3.132,114.05Zm-1.607-3.295a2.224,2.224,0,0,1,.241-1.045,3.147,3.147,0,0,1,.643-.8,1.916,1.916,0,0,1,.884-.482,4.072,4.072,0,0,1,1.045-.161H5.382v4.9H4.338a5.426,5.426,0,0,1-1.125-.161,1.916,1.916,0,0,1-.884-.482,1.837,1.837,0,0,1-.563-.8A1.714,1.714,0,0,1,1.525,110.755Z" transform="translate(-0.4 -104.97)" fill="#757a81"/>
      <rect id="Rectangle_383" data-name="Rectangle 383" width="1.045" height="1.045" transform="translate(74.733 10.527)" fill="#757a81"/>
      <rect id="Rectangle_384" data-name="Rectangle 384" width="1.045" height="1.045" transform="translate(72.965 10.527)" fill="#757a81"/>
      <path id="Path_9350" data-name="Path 9350" d="M103.713,115.027a4.6,4.6,0,0,0,.08-1.125v-.161h13.259V104.5h-1.045v8.2h-4.339l1.768-4.339a3.568,3.568,0,0,0-.884-.643,5.994,5.994,0,0,0-.964-.562,4.916,4.916,0,0,0-.964-.4,4.034,4.034,0,0,0-.964-.161,5.531,5.531,0,0,0-1.045.161,4.916,4.916,0,0,0-.964.4,6,6,0,0,0-.964.563c-.321.241-.563.4-.884.643l1.848,4.339h-3.857V106.75h-1.045v7.232a1.784,1.784,0,0,1-.08.723.862.862,0,0,1-.161.482c-.08.161-.161.241-.321.241a1.019,1.019,0,0,1-.482.08h-.241a.608.608,0,0,1-.321-.08l-.241.964a3.015,3.015,0,0,0,.8.08,3.454,3.454,0,0,0,.964-.161,1.934,1.934,0,0,0,.643-.482A1.531,1.531,0,0,0,103.713,115.027Zm3.375-6.268a4.8,4.8,0,0,1,1.205-.723,3.64,3.64,0,0,1,1.286-.241,4.081,4.081,0,0,1,1.366.241,2.724,2.724,0,0,1,1.125.723l-1.607,3.938h-1.848Z" transform="translate(-20.14 -104.42)" fill="#757a81"/>
      <rect id="Rectangle_385" data-name="Rectangle 385" width="1.045" height="1.045" transform="translate(3.054 0.08)" fill="#757a81"/>
      <path id="Path_9351" data-name="Path 9351" d="M8.148,124.4H6.541l-3.455,3.7v-3.7H1.8v7.313H3.086v-2.089l1.125-1.205L6.7,131.713H8.309l-3.214-4.179Z" transform="translate(-0.675 -108.328)" fill="#757a81"/>
      <rect id="Rectangle_386" data-name="Rectangle 386" width="1.286" height="7.313" transform="translate(8.759 16.072)" fill="#757a81"/>
      <path id="Path_9352" data-name="Path 9352" d="M20.543,129.463,16.605,124.4H15.4v7.313h1.286v-5.223l4.018,5.223h1.125V124.4H20.543Z" transform="translate(-3.346 -108.328)" fill="#757a81"/>
      <path id="Path_9353" data-name="Path 9353" d="M29.1,128.72h1.848v1.366a3.087,3.087,0,0,1-1.768.563A2.449,2.449,0,0,1,26.686,128h0a2.507,2.507,0,0,1,2.411-2.571,2.91,2.91,0,0,1,2.089.8l.8-.964a3.853,3.853,0,0,0-2.813-.964,3.721,3.721,0,0,0-3.777,3.777h0a3.629,3.629,0,0,0,3.777,3.777,5,5,0,0,0,3.054-1.125v-3.054H29.1Z" transform="translate(-5.31 -108.309)" fill="#757a81"/>
      <path id="Path_9354" data-name="Path 9354" d="M38.932,124.4H36.2v7.313h2.732a3.7,3.7,0,0,0,3.938-3.7h0A3.684,3.684,0,0,0,38.932,124.4Zm2.571,3.7a2.427,2.427,0,0,1-2.571,2.491H37.486v-4.982h1.446A2.343,2.343,0,0,1,41.5,128.1Z" transform="translate(-7.432 -108.328)" fill="#757a81"/>
      <path id="Path_9355" data-name="Path 9355" d="M49.757,124.2a3.79,3.79,0,0,0-3.857,3.777h0a3.741,3.741,0,0,0,3.857,3.777,3.79,3.79,0,0,0,3.857-3.777h0A3.694,3.694,0,0,0,49.757,124.2Zm2.491,3.857a2.472,2.472,0,0,1-2.491,2.571,2.521,2.521,0,0,1-2.491-2.571h0a2.472,2.472,0,0,1,2.491-2.571,2.427,2.427,0,0,1,2.491,2.571Z" transform="translate(-9.337 -108.289)" fill="#757a81"/>
      <path id="Path_9356" data-name="Path 9356" d="M61.116,127.855l-2.25-3.455H57.5v7.313h1.286v-5.223l2.33,3.455h0l2.33-3.455v5.223h1.286V124.4H63.366Z" transform="translate(-11.615 -108.328)" fill="#757a81"/>
      <path id="Path_9357" data-name="Path 9357" d="M76.257,124.2a3.79,3.79,0,0,0-3.857,3.777h0a3.741,3.741,0,0,0,3.857,3.777,3.79,3.79,0,0,0,3.857-3.777h0A3.741,3.741,0,0,0,76.257,124.2Zm2.491,3.857a2.472,2.472,0,0,1-2.491,2.571,2.521,2.521,0,0,1-2.491-2.571h0a2.472,2.472,0,0,1,2.491-2.571,2.427,2.427,0,0,1,2.491,2.571Z" transform="translate(-14.542 -108.289)" fill="#757a81"/>
      <path id="Path_9358" data-name="Path 9358" d="M84,131.713h1.286v-2.973h3.7v-1.205h-3.7v-2.009h4.179V124.4H84Z" transform="translate(-16.82 -108.328)" fill="#757a81"/>
      <path id="Path_9359" data-name="Path 9359" d="M99.195,127.434c-1.446-.321-1.768-.562-1.768-1.125h0c0-.482.4-.884,1.205-.884a3.424,3.424,0,0,1,2.009.723l.723-.964a4.214,4.214,0,0,0-2.652-.884,2.241,2.241,0,0,0-2.491,2.089h0c0,1.366.884,1.848,2.411,2.17,1.366.321,1.688.563,1.688,1.125h0c0,.563-.482.884-1.286.884a3.355,3.355,0,0,1-2.33-.964l-.8.884a4.453,4.453,0,0,0,3.054,1.205c1.527,0,2.652-.8,2.652-2.17h0C101.525,128.4,100.722,127.836,99.195,127.434Z" transform="translate(-19.158 -108.309)" fill="#757a81"/>
      <path id="Path_9360" data-name="Path 9360" d="M107.114,124.3l-3.214,7.393h1.286l.723-1.768h3.455l.723,1.768h1.366l-3.214-7.393Zm-.723,4.5,1.286-2.973,1.286,2.973Z" transform="translate(-20.729 -108.309)" fill="#757a81"/>
      <path id="Path_9361" data-name="Path 9361" d="M119.282,128.559c0,1.366-.723,2.009-1.848,2.009s-1.848-.723-1.848-2.089V124.3H114.3v4.259a2.9,2.9,0,0,0,3.134,3.214c1.929,0,3.134-1.125,3.134-3.295V124.3h-1.286Z" transform="translate(-22.772 -108.309)" fill="#757a81"/>
      <path id="Path_9362" data-name="Path 9362" d="M127.232,124.4H124.5v7.313h2.732a3.7,3.7,0,0,0,3.938-3.7h0A3.639,3.639,0,0,0,127.232,124.4Zm2.571,3.7a2.427,2.427,0,0,1-2.571,2.491h-1.446v-4.982h1.446A2.343,2.343,0,0,1,129.8,128.1Z" transform="translate(-24.775 -108.328)" fill="#757a81"/>
      <rect id="Rectangle_387" data-name="Rectangle 387" width="1.286" height="7.313" transform="translate(108.002 16.072)" fill="#757a81"/>
      <path id="Path_9363" data-name="Path 9363" d="M145.214,124.3,142,131.693h1.286l.723-1.768h3.455l.723,1.768h1.366l-3.214-7.393Zm-.643,4.5,1.286-2.973,1.286,2.973Z" transform="translate(-28.213 -108.309)" fill="#757a81"/>
      <path id="Path_9364" data-name="Path 9364" d="M159.127,126.73h0a2.244,2.244,0,0,0-.643-1.607,2.871,2.871,0,0,0-2.089-.723H153.1v7.313h1.286v-2.571h1.607l1.768,2.571h1.527l-2.009-2.813A2.172,2.172,0,0,0,159.127,126.73Zm-4.741,1.286v-2.491h1.848c.964,0,1.527.4,1.527,1.205h0c0,.723-.562,1.205-1.527,1.205h-1.848Z" transform="translate(-30.393 -108.328)" fill="#757a81"/>
      <path id="Path_9365" data-name="Path 9365" d="M165.214,124.3,162,131.693h1.286l.723-1.768h3.455l.723,1.768h1.366l-3.214-7.393Zm-.643,4.5,1.286-2.973,1.286,2.973Z" transform="translate(-32.141 -108.309)" fill="#757a81"/>
      <path id="Path_9366" data-name="Path 9366" d="M177.761,127.955a1.714,1.714,0,0,0,1.045-1.607h0a1.635,1.635,0,0,0-.482-1.205,2.646,2.646,0,0,0-1.929-.643H173.1v7.313h3.375c1.607,0,2.732-.723,2.732-2.009h0A1.71,1.71,0,0,0,177.761,127.955Zm-3.375-2.411h1.848c.8,0,1.286.321,1.286.964h0c0,.643-.563.964-1.366.964h-1.768v-1.929Zm3.536,4.018c0,.643-.563,1.045-1.446,1.045h-2.17V128.6h2.009c1.125,0,1.607.321,1.607.964Z" transform="translate(-34.321 -108.348)" fill="#757a81"/>
      <rect id="Rectangle_388" data-name="Rectangle 388" width="1.286" height="7.313" transform="translate(146.493 16.072)" fill="#757a81"/>
      <path id="Path_9367" data-name="Path 9367" d="M190.32,124.3h-1.205l-3.214,7.393h1.286l.723-1.768h3.455l.723,1.768h1.366Zm-1.929,4.5,1.286-2.973,1.286,2.973Z" transform="translate(-36.835 -108.309)" fill="#757a81"/>
    </g>
  </g>
</svg>
